<mxfile host="app.diagrams.net" modified="2024-04-22T01:56:30.383Z" agent="Mozilla/5.0 (Windows NT 10.0; Win64; x64) AppleWebKit/537.36 (KHTML, like Gecko) Chrome/123.0.0.0 Safari/537.36" etag="MmPJPz06tEEC3AVn6j0w" version="24.2.5" type="github">
  <diagram name="第 1 页" id="0m1JGkICXJwfyc3kdz0c">
    <mxGraphModel dx="1481" dy="815" grid="1" gridSize="10" guides="1" tooltips="1" connect="1" arrows="1" fold="1" page="1" pageScale="1" pageWidth="827" pageHeight="1169" math="0" shadow="0">
      <root>
        <mxCell id="0" />
        <mxCell id="1" parent="0" />
        <mxCell id="BSsokl0MyuDhds6KbzqO-1" value="" style="rounded=0;whiteSpace=wrap;html=1;fillColor=#f5f5f5;fontColor=#333333;strokeColor=none;" parent="1" vertex="1">
          <mxGeometry x="150" y="120" width="330" height="370" as="geometry" />
        </mxCell>
        <mxCell id="BSsokl0MyuDhds6KbzqO-2" value="" style="rounded=0;whiteSpace=wrap;html=1;fillColor=#f5f5f5;fontColor=#333333;strokeColor=none;" parent="1" vertex="1">
          <mxGeometry x="520" y="120" width="330" height="370" as="geometry" />
        </mxCell>
        <mxCell id="BSsokl0MyuDhds6KbzqO-3" value="" style="rounded=0;whiteSpace=wrap;html=1;fillColor=#dae8fc;strokeColor=none;" parent="1" vertex="1">
          <mxGeometry x="150" y="370" width="330" height="120" as="geometry" />
        </mxCell>
        <mxCell id="BSsokl0MyuDhds6KbzqO-4" value="" style="rounded=0;whiteSpace=wrap;html=1;fillColor=#f8cecc;strokeColor=none;" parent="1" vertex="1">
          <mxGeometry x="520" y="370" width="330" height="120" as="geometry" />
        </mxCell>
        <mxCell id="BSsokl0MyuDhds6KbzqO-5" value="&lt;font style=&quot;font-size: 14px;&quot;&gt;用友&lt;/font&gt;" style="ellipse;whiteSpace=wrap;html=1;aspect=fixed;fillColor=#1ba1e2;fontColor=#ffffff;strokeColor=none;" parent="1" vertex="1">
          <mxGeometry x="170" y="270" width="80" height="80" as="geometry" />
        </mxCell>
        <mxCell id="BSsokl0MyuDhds6KbzqO-6" value="&lt;font style=&quot;font-size: 14px;&quot;&gt;泛微&lt;/font&gt;" style="ellipse;whiteSpace=wrap;html=1;aspect=fixed;fillColor=#1ba1e2;fontColor=#ffffff;strokeColor=none;" parent="1" vertex="1">
          <mxGeometry x="270" y="280" width="80" height="80" as="geometry" />
        </mxCell>
        <mxCell id="BSsokl0MyuDhds6KbzqO-7" value="&lt;font style=&quot;font-size: 14px;&quot;&gt;宜搭&lt;/font&gt;" style="ellipse;whiteSpace=wrap;html=1;aspect=fixed;fillColor=#1ba1e2;fontColor=#ffffff;strokeColor=none;" parent="1" vertex="1">
          <mxGeometry x="380" y="270" width="80" height="80" as="geometry" />
        </mxCell>
        <mxCell id="BSsokl0MyuDhds6KbzqO-8" value="B&lt;a style=&quot;box-sizing: border-box; text-decoration-line: none; text-align: start; text-wrap: nowrap;&quot; class=&quot;Link__StyledLink-sc-14289xe-0 dheQRw&quot; href=&quot;https://github.com/Budibase/budibase&quot;&gt;&lt;span style=&quot;box-sizing: border-box; overflow: hidden; text-overflow: ellipsis;&quot; class=&quot;Text-sc-17v1xeu-0 qaOIC search-match&quot;&gt;&lt;span style=&quot;box-sizing: border-box;&quot;&gt;&lt;font color=&quot;#4d4d4d&quot; style=&quot;font-size: 14px;&quot; face=&quot;Helvetica&quot;&gt;udibase&lt;/font&gt;&lt;/span&gt;&lt;/span&gt;&lt;/a&gt;" style="ellipse;whiteSpace=wrap;html=1;aspect=fixed;strokeColor=#82b366;fillColor=#d5e8d4;gradientColor=#97d077;" parent="1" vertex="1">
          <mxGeometry x="570" y="280" width="80" height="80" as="geometry" />
        </mxCell>
        <mxCell id="BSsokl0MyuDhds6KbzqO-9" value="&lt;font color=&quot;#4d4d4d&quot; style=&quot;font-size: 14px;&quot; face=&quot;Helvetica&quot;&gt;&lt;span style=&quot;vertical-align: baseline;&quot;&gt;Lowcode&lt;/span&gt;&lt;span style=&quot;vertical-align: baseline;&quot;&gt;-engine&lt;/span&gt;&lt;/font&gt;" style="ellipse;whiteSpace=wrap;html=1;aspect=fixed;strokeColor=#82b366;fillColor=#d5e8d4;gradientColor=#97d077;" parent="1" vertex="1">
          <mxGeometry x="680" y="280" width="80" height="80" as="geometry" />
        </mxCell>
        <mxCell id="BSsokl0MyuDhds6KbzqO-10" value="&lt;span style=&quot;vertical-align: baseline;&quot;&gt;&lt;font color=&quot;#4d4d4d&quot; style=&quot;font-size: 14px;&quot; face=&quot;Helvetica&quot;&gt;Amis&lt;/font&gt;&lt;/span&gt;" style="ellipse;whiteSpace=wrap;html=1;aspect=fixed;strokeColor=#82b366;fillColor=#d5e8d4;gradientColor=#97d077;" parent="1" vertex="1">
          <mxGeometry x="747" y="200" width="80" height="80" as="geometry" />
        </mxCell>
        <mxCell id="BSsokl0MyuDhds6KbzqO-11" value="&lt;h1 style=&quot;box-sizing: border-box; outline: 0px; margin: 0px; padding: 0px; overflow-wrap: break-word; word-break: break-all; font-variant-ligatures: common-ligatures; text-align: start;&quot; id=&quot;articleContentId&quot; class=&quot;title-article&quot;&gt;&lt;font color=&quot;#4d4d4d&quot; face=&quot;Helvetica&quot; style=&quot;font-weight: normal; font-size: 14px;&quot;&gt;Appsmith&lt;/font&gt;&lt;/h1&gt;" style="ellipse;whiteSpace=wrap;html=1;aspect=fixed;fillColor=#d5e8d4;strokeColor=#82b366;gradientColor=#97d077;" parent="1" vertex="1">
          <mxGeometry x="540" y="190" width="80" height="80" as="geometry" />
        </mxCell>
        <mxCell id="BSsokl0MyuDhds6KbzqO-12" value="&lt;font style=&quot;font-size: 14px;&quot;&gt;Mendix&lt;/font&gt;" style="ellipse;whiteSpace=wrap;html=1;aspect=fixed;fillColor=#1ba1e2;fontColor=#ffffff;strokeColor=none;" parent="1" vertex="1">
          <mxGeometry x="220" y="190" width="80" height="80" as="geometry" />
        </mxCell>
        <mxCell id="BSsokl0MyuDhds6KbzqO-13" value="&lt;font color=&quot;#333333&quot; size=&quot;1&quot; style=&quot;&quot;&gt;&lt;b style=&quot;font-size: 18px;&quot;&gt;商业软件&lt;/b&gt;&lt;/font&gt;" style="rounded=0;whiteSpace=wrap;html=1;fillColor=#dae8fc;strokeColor=none;" parent="1" vertex="1">
          <mxGeometry x="150" y="120" width="330" height="60" as="geometry" />
        </mxCell>
        <mxCell id="BSsokl0MyuDhds6KbzqO-14" value="&lt;font color=&quot;#333333&quot; style=&quot;font-size: 18px;&quot;&gt;&lt;b&gt;开源项目&lt;/b&gt;&lt;/font&gt;" style="rounded=0;whiteSpace=wrap;html=1;fillColor=#f8cecc;strokeColor=none;" parent="1" vertex="1">
          <mxGeometry x="520" y="120" width="330" height="60" as="geometry" />
        </mxCell>
        <mxCell id="BSsokl0MyuDhds6KbzqO-15" value="&lt;h1 style=&quot;margin-top: 0px;&quot;&gt;&lt;font style=&quot;font-size: 14px;&quot;&gt;面临问题&lt;/font&gt;&lt;/h1&gt;&lt;p&gt;1. 中南院数字化成果难与商业软件集成&lt;/p&gt;&lt;p&gt;2. 三维引擎类的低代码需求响应困难&lt;/p&gt;" style="text;html=1;whiteSpace=wrap;overflow=hidden;rounded=0;" parent="1" vertex="1">
          <mxGeometry x="160" y="370" width="310" height="120" as="geometry" />
        </mxCell>
        <mxCell id="BSsokl0MyuDhds6KbzqO-16" value="&lt;h1 style=&quot;margin-top: 0px;&quot;&gt;&lt;font style=&quot;font-size: 14px;&quot;&gt;面临问题&lt;/font&gt;&lt;/h1&gt;&lt;p&gt;1. 无法直接用于解决实际业务问题&lt;/p&gt;&lt;p&gt;2. 需要基于中南院技术背景进行二次开发&lt;/p&gt;" style="text;html=1;whiteSpace=wrap;overflow=hidden;rounded=0;" parent="1" vertex="1">
          <mxGeometry x="530" y="370" width="310" height="120" as="geometry" />
        </mxCell>
        <mxCell id="BSsokl0MyuDhds6KbzqO-17" value="&lt;span style=&quot;vertical-align: baseline;&quot;&gt;&lt;font color=&quot;#4d4d4d&quot; style=&quot;font-size: 14px;&quot; face=&quot;Helvetica&quot;&gt;Yao&lt;/font&gt;&lt;/span&gt;" style="ellipse;whiteSpace=wrap;html=1;aspect=fixed;strokeColor=#82b366;fillColor=#d5e8d4;gradientColor=#97d077;" parent="1" vertex="1">
          <mxGeometry x="645" y="190" width="80" height="80" as="geometry" />
        </mxCell>
        <mxCell id="BSsokl0MyuDhds6KbzqO-19" value="&lt;span style=&quot;vertical-align: baseline;&quot;&gt;&lt;font style=&quot;font-size: 14px;&quot; face=&quot;Helvetica&quot;&gt;OutSystems&lt;/font&gt;&lt;/span&gt;" style="ellipse;whiteSpace=wrap;html=1;aspect=fixed;fillColor=#1ba1e2;fontColor=#ffffff;strokeColor=none;" parent="1" vertex="1">
          <mxGeometry x="320" y="190" width="80" height="80" as="geometry" />
        </mxCell>
      </root>
    </mxGraphModel>
  </diagram>
</mxfile>
